<?xml version="1.0" standalone="no"?>
<!DOCTYPE svg PUBLIC "-//W3C//DTD SVG 20010904//EN"
 "http://www.w3.org/TR/2001/REC-SVG-20010904/DTD/svg10.dtd">
<svg version="1.0" xmlns="http://www.w3.org/2000/svg"
 width="700.000000pt" height="700.000000pt" viewBox="0 0 700.000000 700.000000"
 preserveAspectRatio="xMidYMid meet">
<metadata>
Created by potrace 1.11, written by Peter Selinger 2001-2013
</metadata>
<g transform="translate(0.000000,700.000000) scale(0.100000,-0.100000)"
fill="#000000" stroke="none">
<path d="M2738 6125 c-2 -2 -48 -5 -103 -8 -55 -3 -111 -8 -125 -11 -13 -3
-42 -8 -65 -11 -196 -28 -471 -133 -670 -255 -236 -144 -481 -390 -619 -620
-81 -135 -183 -364 -201 -452 -2 -9 -13 -50 -24 -90 -11 -40 -23 -98 -26 -128
-4 -30 -9 -58 -11 -62 -5 -8 -18 -205 -18 -273 0 -58 13 -236 18 -243 2 -4 7
-36 11 -72 4 -36 11 -72 15 -80 4 -8 11 -33 14 -55 4 -22 25 -90 46 -151 185
-539 607 -968 1144 -1165 92 -33 239 -73 311 -84 28 -4 61 -9 75 -11 495 -76
1047 76 1440 394 l54 44 41 -44 41 -43 -2 -112 -1 -112 724 -723 c398 -398
727 -724 731 -726 11 -3 427 413 427 427 0 6 -325 336 -722 734 l-723 723
-112 0 -113 -1 -45 42 -45 42 20 20 c26 26 33 35 75 96 19 28 37 52 40 55 3 3
20 28 36 55 141 228 221 444 269 720 23 137 24 428 1 550 -2 11 -7 43 -11 70
-26 182 -125 447 -237 634 -283 472 -779 814 -1298 895 -19 3 -46 8 -60 11
-37 8 -297 25 -302 20z m287 -609 c275 -61 484 -173 670 -360 260 -262 390
-583 386 -951 0 -49 -3 -99 -5 -110 -2 -11 -7 -45 -11 -75 -8 -64 -28 -139
-60 -230 -103 -289 -278 -505 -550 -681 -113 -73 -347 -159 -474 -174 -30 -4
-63 -9 -75 -11 -33 -7 -205 -6 -271 1 -450 49 -837 318 -1040 725 -58 115
-100 249 -122 386 -10 64 -10 325 0 389 75 471 393 864 833 1030 79 30 174 56
227 62 21 3 50 8 65 13 51 14 341 4 427 -14z"/>
</g>
</svg>
